<svg xmlns="http://www.w3.org/2000/svg" version="1.1" xmlns:xlink="http://www.w3.org/1999/xlink" xmlns:svgjs="http://svgjs.dev/svgjs" width="609" height="410"><svg width="609" height="410" viewBox="0 0 609 410" fill="none" xmlns="http://www.w3.org/2000/svg">
<path d="M102.537 404.015L0 0H86.1115L145.842 268.345H147.833L219.011 0H295.665L369.831 268.345H371.821L431.552 0H517.663L415.126 404.015H333.494L258.334 126.192H256.343L184.168 404.015H102.537ZM558.728 410C544.79 410 532.844 405.178 522.889 395.535C513.266 385.56 508.454 373.589 508.454 359.623C508.454 345.657 513.266 333.853 522.889 324.21C532.844 314.234 544.79 309.246 558.728 309.246C572.664 309.246 584.444 314.234 594.067 324.21C604.023 333.853 609 345.657 609 359.623C609 373.589 604.023 385.56 594.067 395.535C584.444 405.178 572.664 410 558.728 410Z" fill="black" fill-opacity="0.71"></path>
</svg><style>@media (prefers-color-scheme: light) { :root { filter: none; } }
@media (prefers-color-scheme: dark) { :root { filter: invert(100%); } }
</style></svg>