<svg xmlns="http://www.w3.org/2000/svg" version="1.1" xmlns:xlink="http://www.w3.org/1999/xlink" xmlns:svgjs="http://svgjs.dev/svgjs" width="960" height="960"><svg width="960" height="960" viewBox="0 0 960 960" fill="none" xmlns="http://www.w3.org/2000/svg">
<path d="M208.558 746.971L71 205H186.522L266.653 564.975H269.324L364.813 205H467.647L567.144 564.975H569.814L649.945 205H765.467L627.909 746.971H518.397L417.566 374.282H414.895L318.07 746.971H208.558ZM820.557 755C801.859 755 785.833 748.531 772.479 735.596C759.569 722.215 753.114 706.156 753.114 687.421C753.114 668.686 759.569 652.851 772.479 639.915C785.833 626.533 801.859 619.842 820.557 619.842C839.254 619.842 855.057 626.533 867.967 639.915C881.323 652.851 888 668.686 888 687.421C888 706.156 881.323 722.215 867.967 735.596C855.057 748.531 839.254 755 820.557 755Z" fill="black" fill-opacity="0.71"></path>
</svg><style>@media (prefers-color-scheme: light) { :root { filter: none; } }
@media (prefers-color-scheme: dark) { :root { filter: invert(100%); } }
</style></svg>